<svg id="Layer_35" enable-background="new 0 0 64 64" height="512" viewBox="0 0 64 64" width="512" xmlns="http://www.w3.org/2000/svg"><path d="m26 54.85 5 7.15h-17-8c0-6.05 3.66-11.5 9.26-13.79l.75-.31c.13 2.59 1.65 4.93 3.99 6.1v1c0 1.66 1.34 3 3 3 .83 0 1.58-.34 2.12-.88s.88-1.29.88-2.12c0-.05 0-.1-.01-.15z" fill="#5cd6b3"/><path d="m38.88 57.12c.54.54 1.29.88 2.12.88 1.66 0 3-1.34 3-3v-1c2.34-1.17 3.86-3.51 3.99-6.1l.75.31c2.8 1.15 5.12 3.08 6.73 5.49 1.61 2.4 2.53 5.28 2.53 8.3h-8-17l5-7.15h.01c-.01.05-.01.1-.01.15 0 .83.34 1.58.88 2.12z" fill="#5cd6b3"/><path d="m25.79 43.89 2.21 8.11 4-4v14h-1l-5-7.15h-.01c-.03-.77-.36-1.46-.87-1.97-.31-.31-.69-.56-1.12-.7v-.01-7.53l1.51-.62c.1-.04.19-.08.28-.14z" fill="#e6e9ed"/><path d="m36 52 2.21-8.11v-.01c.09.06.18.1.28.14l1.51.62v7.53.01c-.43.14-.81.39-1.12.7-.45.44-.75 1.02-.87 1.97h-.01l-5 7.15h-1v-14z" fill="#e6e9ed"/><path d="m32 48-4 4-2.21-8.11v-.01c.46-.22.86-.53 1.19-.9z" fill="#ccd1d9"/><path d="m38.21 43.88v.01l-2.21 8.11-4-4 5.02-5.02c.33.37.73.68 1.19.9z" fill="#ccd1d9"/><path d="m44 54v1c0 1.66-1.34 3-3 3-.83 0-1.58-.34-2.12-.88s-.88-1.29-.88-2.12c0-.05 0-.1.01-.15.12-.95.42-1.53.87-1.97.31-.31.69-.56 1.12-.7v-.01-7.53-9.14c2.53-3.07 4-6.98 4-11.15v-.75c0-1.9-1.33-3.54-3.19-3.91-2.72-.53-5.27-1.74-7.42-3.53l-1.39-1.16-1.39 1.16c-2.15 1.79-4.7 3-7.42 3.53-1.86.37-3.19 2.01-3.19 3.91v.75c0 4.17 1.47 8.08 4 11.15v9.14 7.53.01c.43.14.81.39 1.12.7.51.51.84 1.2.87 1.97.01.05.01.1.01.15 0 .83-.34 1.58-.88 2.12s-1.29.88-2.12.88c-1.66 0-3-1.34-3-3v-1c-2.34-1.17-3.86-3.51-3.99-6.1-.01-.12-.01-.25-.01-.37v-29.53c0-8.84 7.16-16 16-16 4.42 0 8.42 1.79 11.32 4.68 2.89 2.9 4.68 6.9 4.68 11.32v29.53c0 .12 0 .25-.01.37-.13 2.59-1.65 4.93-3.99 6.1z" fill="#b27946"/><path d="m36 40.31c0 1.01.38 1.95 1.02 2.67l-5.02 5.02-5.02-5.02c.64-.72 1.02-1.66 1.02-2.67v-1.24c1.23.8 2.57 1.45 4 1.93 1.43-.48 2.77-1.13 4-1.93z" fill="#f0d0b4"/><path d="m33.39 16.16c2.15 1.79 4.7 3 7.42 3.53 1.86.37 3.19 2.01 3.19 3.91v.75c0 4.17-1.47 8.08-4 11.15-1.14 1.38-2.48 2.59-4 3.57-1.23.8-2.57 1.45-4 1.93-1.43-.48-2.77-1.13-4-1.93-1.52-.98-2.86-2.19-4-3.57-2.53-3.07-4-6.98-4-11.15v-.75c0-1.9 1.33-3.54 3.19-3.91 2.72-.53 5.27-1.74 7.42-3.53l1.39-1.16z" fill="#f0d0b4"/><circle cx="26" cy="24" r="1"/><circle cx="38" cy="24" r="1"/><path d="m32 34c-1.103 0-2-.897-2-2h-2c0 2.206 1.794 4 4 4s4-1.794 4-4h-2c0 1.103-.897 2-2 2z"/><path d="m49.124 47.289-.124-.051v-29.238c0-9.374-7.626-17-17-17s-17 7.626-17 17v29.238l-.123.05c-6 2.455-9.877 8.23-9.877 14.712v1h54v-1c0-6.482-3.877-12.257-9.876-14.711zm-32.124-29.289c0-8.271 6.729-15 15-15s15 6.729 15 15v29.528c0 1.777-.739 3.419-2 4.58v-11.108h-2v14c0 1.103-.897 2-2 2s-2-.897-2-2 .897-2 2-2h1v-2h-1v-15.155c2.526-3.197 4-7.209 4-11.494v-.75c0-2.38-1.683-4.438-4.001-4.893-2.557-.502-4.966-1.649-6.968-3.317l-2.031-1.693-2.031 1.692c-2.001 1.668-4.411 2.815-6.968 3.317-2.318.457-4.001 2.514-4.001 4.894v.75c0 4.285 1.474 8.296 4 11.494v15.155h-1v2h1c1.103 0 2 .897 2 2s-.897 2-2 2-2-.897-2-2v-14h-2v11.108c-1.261-1.16-2-2.803-2-4.58zm20.054 36.465-4.054 5.791v-9.842l3.511 3.512 2.365-8.669.124.051v6.249c-1.042.607-1.777 1.663-1.946 2.908zm-10.108-.001c-.169-1.245-.904-2.3-1.946-2.908v-6.249l.124-.051 2.364 8.669 3.512-3.511v9.842zm.054-14.867v.718c0 1.224-.731 2.313-1.864 2.776l-.136.056v-5.146c.626.575 1.294 1.108 2 1.596zm10 .717v-.718c.706-.488 1.374-1.021 2-1.596v5.146l-.136-.056c-1.133-.462-1.864-1.552-1.864-2.776zm-1.964.482c.072.748.306 1.452.678 2.076l-3.714 3.714-3.714-3.714c.372-.624.606-1.328.678-2.076.864.45 1.772.837 2.719 1.153l.317.105.316-.105c.947-.316 1.856-.703 2.72-1.153zm-4.45 7.204-2.075 2.074-1.556-5.705zm6.458-3.63-1.556 5.705-2.074-2.075zm-5.044-4.428c-6.594-2.345-11-8.568-11-15.591v-.75c0-1.426 1.004-2.659 2.387-2.93 2.885-.567 5.604-1.861 7.862-3.744l.751-.625.75.625c2.258 1.883 4.978 3.177 7.862 3.744 1.384.271 2.388 1.504 2.388 2.93v.75c0 7.023-4.406 13.247-11 15.591zm-16.785 9.386c.484 2.184 1.832 4.07 3.785 5.241v.431c0 2.206 1.794 4 4 4 1.42 0 2.662-.749 3.372-1.868l2.707 3.868h-13.926l.837-5.858-1.979-.283-.878 6.141h-6.098c.362-5.103 3.482-9.569 8.18-11.672zm35.652 11.672-.877-6.142-1.979.283.836 5.859h-13.926l2.708-3.868c.709 1.119 1.951 1.868 3.371 1.868 2.206 0 4-1.794 4-4v-.431c1.952-1.171 3.3-3.057 3.784-5.24 4.699 2.102 7.819 6.569 8.18 11.672h-6.097z"/><path d="m42.962 17.083 1.993-.165c-.061-.732-.184-1.461-.365-2.167l-1.937.498c.154.597.258 1.214.309 1.834z"/><path d="m42.003 13.417 1.817-.834c-2.113-4.607-6.754-7.583-11.82-7.583v2c4.288 0 8.214 2.519 10.003 6.417z"/></svg>